<svg xmlns="http://www.w3.org/2000/svg" version="1.1" xmlnsXlink="http://www.w3.org/1999/xlink"
  xmlnsSvgjs="http://svgjs.com/svgjs" width="512" height="512" x="0" y="0" viewBox="0 0 36 36"
  style="enable-background:new 0 0 512 512" xml:space="preserve" class="">
  <g>
    <path
      d="M15.87 16.93H7.33A5.33 5.33 0 0 1 2 11.6V7.33A5.33 5.33 0 0 1 7.33 2h4.27a5.33 5.33 0 0 1 5.33 5.33v8.53a1.07 1.07 0 0 1-1.06 1.07ZM7.33 4.13a3.2 3.2 0 0 0-3.2 3.2v4.27a3.2 3.2 0 0 0 3.2 3.2h7.47V7.33a3.2 3.2 0 0 0-3.2-3.2ZM28.67 16.93h-8.54a1.07 1.07 0 0 1-1.07-1.07V7.33A5.33 5.33 0 0 1 24.4 2h4.27A5.33 5.33 0 0 1 34 7.33v4.27a5.33 5.33 0 0 1-5.33 5.33ZM21.2 14.8h7.47a3.2 3.2 0 0 0 3.2-3.2V7.33a3.2 3.2 0 0 0-3.2-3.2H24.4a3.2 3.2 0 0 0-3.2 3.2ZM11.6 34H7.33A5.33 5.33 0 0 1 2 28.67V24.4a5.33 5.33 0 0 1 5.33-5.33h8.53a1.07 1.07 0 0 1 1.07 1.07v8.53A5.33 5.33 0 0 1 11.6 34ZM7.33 21.2a3.2 3.2 0 0 0-3.2 3.2v4.27a3.2 3.2 0 0 0 3.2 3.2h4.27a3.2 3.2 0 0 0 3.2-3.2V21.2ZM28.67 34H24.4a5.33 5.33 0 0 1-5.33-5.33v-8.54a1.07 1.07 0 0 1 1.07-1.07h8.53A5.33 5.33 0 0 1 34 24.4v4.27A5.33 5.33 0 0 1 28.67 34ZM21.2 21.2v7.47a3.2 3.2 0 0 0 3.2 3.2h4.27a3.2 3.2 0 0 0 3.2-3.2V24.4a3.2 3.2 0 0 0-3.2-3.2Z"
      fill="#000000" data-original="#000000"></path>
  </g>
</svg>