<svg xmlns="http://www.w3.org/2000/svg" version="1.1" xmlnsXlink="http://www.w3.org/1999/xlink"
  xmlnsSvgjs="http://svgjs.com/svgjs" width="512" height="512" x="0" y="0" viewBox="0 0 36 36"
  style="enable-background:new 0 0 512 512" xml:space="preserve" class="">
  <g>
    <g fill-rule="evenodd">
      <path
        d="M16.86 6.57A4.57 4.57 0 0 0 12.29 2H6.57A4.57 4.57 0 0 0 2 6.57v5.71a4.57 4.57 0 0 0 4.57 4.57h8a2.29 2.29 0 0 0 2.29-2.29v-8zM19.14 6.57A4.57 4.57 0 0 1 23.71 2h5.71A4.57 4.57 0 0 1 34 6.57v5.71a4.57 4.57 0 0 1-4.57 4.57h-8a2.29 2.29 0 0 1-2.29-2.29v-8zM16.86 29.43A4.57 4.57 0 0 1 12.29 34H6.57A4.57 4.57 0 0 1 2 29.43v-5.72a4.57 4.57 0 0 1 4.57-4.57h8a2.29 2.29 0 0 1 2.29 2.29zM19.14 29.43A4.57 4.57 0 0 0 23.71 34h5.71A4.57 4.57 0 0 0 34 29.43v-5.72a4.57 4.57 0 0 0-4.57-4.57h-8a2.29 2.29 0 0 0-2.29 2.29z"
        fill="#000000" data-original="#000000"></path>
    </g>
  </g>
</svg>