<svg xmlns="http://www.w3.org/2000/svg" version="1.1" xmlnsXlink="http://www.w3.org/1999/xlink"
  xmlnsSvgjs="http://svgjs.com/svgjs" width="512" height="512" x="0" y="0" viewBox="0 0 24 24"
  style="enable-background:new 0 0 512 512" xml:space="preserve" class="">
  <g>
    <g data-name="Layer 2">
      <path
        d="m14.2 13.477-3.138-1.567a.285.285 0 0 0-.131-.033.3.3 0 0 0-.153.045.285.285 0 0 0-.138.248v3.66a.292.292 0 0 0 .453.242l3.137-2.091a.28.28 0 0 0 .129-.26.284.284 0 0 0-.159-.244z"
        fill="#000000" data-original="#000000" class=""></path>
      <path
        d="M19 5.25H5A3.754 3.754 0 0 0 1.25 9v10A3.754 3.754 0 0 0 5 22.75h14A3.755 3.755 0 0 0 22.75 19V9A3.755 3.755 0 0 0 19 5.25zm-3.937 9.979-3.138 2.091a1.791 1.791 0 0 1-2.785-1.49v-3.66a1.791 1.791 0 0 1 2.593-1.6l3.136 1.568a1.792 1.792 0 0 1 .194 3.093z"
        fill="#000000" data-original="#000000" class=""></path>
      <path
        d="M12 6.75a.744.744 0 0 1-.53-.22l-4-4a.75.75 0 0 1 1.06-1.06L12 4.939l3.47-3.469a.75.75 0 0 1 1.06 1.06l-4 4a.744.744 0 0 1-.53.22z"
        fill="#000000" data-original="#000000" class=""></path>
    </g>
  </g>
</svg>