<svg xmlns="http://www.w3.org/2000/svg" version="1.1" xmlnsXlink="http://www.w3.org/1999/xlink"
  xmlnsSvgjs="http://svgjs.com/svgjs" width="512" height="512" x="0" y="0" viewBox="0 0 512 512"
  style="enable-background:new 0 0 512 512" xml:space="preserve" class="">
  <g>
    <path
      d="M511.809 256.035c0-141.3-114.551-255.851-255.856-255.851C114.653.184.102 114.734.102 256.035c0 141.309 114.55 255.856 255.851 255.856H511.81v-42.645H397.207c71.535-47.355 114.57-127.418 114.602-213.21Zm-469.063 0c0-117.75 95.457-213.207 213.207-213.207 117.754 0 213.215 95.457 213.215 213.207 0 117.754-95.461 213.211-213.215 213.211-117.695-.129-213.074-95.512-213.207-213.21Zm0 0"
      style="stroke:none;fill-rule:nonzero;fill-opacity:1;" fill="#000000" data-original="#000000"></path>
    <path
      d="M277.277 256.035c0 11.777-9.55 21.32-21.324 21.32-11.773 0-21.32-9.543-21.32-21.32 0-11.773 9.547-21.316 21.32-21.316 11.774 0 21.324 9.543 21.324 21.316ZM255.953 192.074c35.328 0 63.965-28.637 63.965-63.965 0-35.324-28.637-63.96-63.965-63.96-35.324 0-63.96 28.636-63.96 63.96.038 35.313 28.652 63.926 63.96 63.965Zm0-85.285c11.774 0 21.324 9.547 21.324 21.32 0 11.778-9.55 21.32-21.324 21.32-11.773 0-21.32-9.542-21.32-21.32.012-11.77 9.55-21.308 21.32-21.32ZM195.121 236.27c8.55-26.34-.832-55.188-23.234-71.47-22.407-16.277-52.742-16.28-75.149-.007-22.414 16.27-31.8 45.117-23.258 71.457 8.54 26.348 33.067 44.2 60.762 44.223 27.723 0 52.293-17.84 60.88-44.203Zm-67.426.511c-11.199-3.636-17.324-15.664-13.687-26.867 3.64-11.195 15.664-17.324 26.863-13.687 11.2 3.64 17.332 15.664 13.691 26.863-3.648 11.191-15.667 17.312-26.863 13.691ZM218.36 307.785c-24.692-17.933-58.61-15.93-81.012 4.79-22.407 20.714-27.055 54.374-11.114 80.39 15.95 26.015 48.051 37.148 76.68 26.578 28.629-10.563 45.805-39.879 41.031-70.016a63.551 63.551 0 0 0-25.586-41.742Zm-20.348 64.274c-5.977 8.23-16.942 11.09-26.176 6.828-9.238-4.258-14.18-14.446-11.805-24.34 2.38-9.89 11.41-16.727 21.574-16.324 10.165.398 18.625 7.925 20.22 17.972a21.36 21.36 0 0 1-3.813 15.868ZM382.895 321.938c-20.762-28.551-60.739-34.872-89.293-14.118-28.559 20.754-34.891 60.727-14.145 89.29 20.746 28.562 60.719 34.91 89.29 14.171a63.559 63.559 0 0 0 25.75-41.715 63.557 63.557 0 0 0-11.602-47.628ZM343.68 376.77c-9.524 6.921-22.86 4.808-29.782-4.72-6.921-9.527-4.812-22.859 4.72-29.78 9.527-6.922 22.859-4.813 29.78 4.718 6.91 9.532 4.797 22.856-4.718 29.782ZM434.613 245.543c11.742-23.05 8.446-50.902-8.355-70.578-16.801-19.672-43.797-27.285-68.403-19.293-27.535 8.95-45.625 35.27-44.109 64.183 1.512 28.91 22.254 53.2 50.574 59.215 28.317 6.02 57.149-7.73 70.293-33.527Zm-37.996-19.356c-5.422 10.407-18.176 14.56-28.68 9.333a21.342 21.342 0 0 1-11.574-20.672 21.32 21.32 0 1 1 40.25 11.351Zm0 0"
      style="stroke:none;fill-rule:nonzero;fill-opacity:1;" fill="#000000" data-original="#000000"></path>
  </g>
</svg>