<svg xmlns="http://www.w3.org/2000/svg" version="1.1" xmlnsXlink="http://www.w3.org/1999/xlink"
  xmlnsSvgjs="http://svgjs.com/svgjs" width="512" height="512" x="0" y="0" viewBox="0 0 192 192"
  style="enable-background:new 0 0 512 512" xml:space="preserve" class="">
  <g>
    <path
      d="M192 96c0-53.02-42.98-96-96-96S0 42.98 0 96s42.98 96 96 96h96v-16h-43a95.986 95.986 0 0 0 43-80zm-48.977 64.723c-10.722 7.789-25.734 5.414-33.523-5.313-7.79-10.722-5.414-25.73 5.309-33.523 10.726-7.79 25.734-5.414 33.523 5.312 7.793 10.723 5.414 25.73-5.309 33.524zm-1.18-104.852c12.606-4.098 26.145 2.8 30.243 15.406 4.094 12.61-2.805 26.149-15.41 30.243-12.606 4.097-26.145-2.801-30.242-15.407-4.094-12.605 2.804-26.148 15.41-30.242zM96 16c13.254 0 24 10.746 24 24s-10.746 24-24 24-24-10.746-24-24 10.746-24 24-24zM19.914 71.277c4.098-12.605 17.637-19.504 30.242-15.41 12.606 4.098 19.504 17.637 15.41 30.242-4.097 12.606-17.636 19.504-30.242 15.41S15.82 83.888 19.914 71.278zM82.5 155.41c-7.79 10.727-22.8 13.102-33.523 5.313-10.723-7.793-13.102-22.801-5.309-33.524 7.789-10.722 22.8-13.101 33.523-5.308 10.723 7.789 13.098 22.796 5.309 33.52zM88 96a8 8 0 1 1 16 0 8 8 0 0 1-16 0zm0 0"
      fill="#000000" data-original="#000000"></path>
  </g>
</svg>