<svg xmlns="http://www.w3.org/2000/svg" version="1.1" xmlnsXlink="http://www.w3.org/1999/xlink"
  xmlnsSvgjs="http://svgjs.com/svgjs" width="512" height="512" x="0" y="0" viewBox="0 0 511.956 511.956"
  style="enable-background:new 0 0 512 512" xml:space="preserve" class="">
  <g>
    <path
      d="M424.093 390.937a165.964 165.964 0 0 1-14.537 11.166c-6.839 4.675-8.593 14.009-3.918 20.848 2.906 4.25 7.609 6.536 12.397 6.536 2.915 0 5.863-.849 8.452-2.619a196.33 196.33 0 0 0 17.171-13.19c6.28-5.402 6.992-14.873 1.589-21.153-5.402-6.279-14.873-6.99-21.154-1.588zM487.349 324.936c-7.564-3.384-16.435.004-19.818 7.567-1.56 3.487-7.25 14.371-8.397 16.335-4.18 7.153-1.77 16.339 5.382 20.519a14.925 14.925 0 0 0 7.554 2.052c5.156 0 10.176-2.661 12.965-7.434 1.349-2.309 8.044-15.115 9.881-19.22 3.383-7.564-.005-16.436-7.567-19.819zM511.954 260.534c-.181-8.283-7.053-14.855-15.324-14.669-8.282.181-14.85 7.041-14.669 15.324.026 1.209-.18 13.462-.612 18.321-.734 8.251 5.359 15.537 13.611 16.271.453.04.901.06 1.347.06 7.683 0 14.229-5.872 14.924-13.671.51-5.74.754-20.205.723-21.636zM471.787 207.334c2.226 6.078 7.97 9.846 14.086 9.846 1.712 0 3.455-.295 5.157-.919 7.779-2.849 11.776-11.464 8.927-19.243a198.125 198.125 0 0 0-8.541-19.876c-3.683-7.421-12.686-10.45-20.105-6.768-7.421 3.683-10.451 12.684-6.768 20.104a168 168 0 0 1 7.244 16.856zM453.513 124.74a195.983 195.983 0 0 0-16.243-14.332c-6.506-5.128-15.938-4.01-21.066 2.495-5.128 6.506-4.012 15.938 2.495 21.066a165.871 165.871 0 0 1 13.749 12.131 14.951 14.951 0 0 0 10.532 4.32c3.874 0 7.746-1.491 10.681-4.467 5.816-5.899 5.75-15.396-.148-21.213zM353.077 102.384a166.232 166.232 0 0 1 17.593 5.139 14.96 14.96 0 0 0 4.996.86c6.18 0 11.968-3.85 14.143-10.008 2.759-7.812-1.336-16.38-9.148-19.139a196.143 196.143 0 0 0-20.782-6.07c-8.066-1.875-16.131 3.139-18.011 11.208-1.878 8.067 3.14 16.131 11.209 18.01zM162.026 311.015c0-8.284-6.716-15-15-15H15c-8.284 0-15 6.716-15 15s6.716 15 15 15h132.026c8.285 0 15-6.716 15-15zM202.049 378.015c0-8.284-6.716-15-15-15H75.213c-8.284 0-15 6.716-15 15s6.716 15 15 15h111.836c8.284 0 15-6.716 15-15zM107.213 194.015h46.671c5.233 0 9.834-2.683 12.518-6.745.493-.61.953-1.256 1.335-1.974 12.853-24.17 30.708-44.253 53.068-59.691 15.935-11.002 33.844-19.232 52.605-24.26l-.816.722c-5.173 4.572-5.66 12.471-1.089 17.645a12.469 12.469 0 0 0 9.372 4.222c2.941 0 5.896-1.032 8.273-3.133l32.044-28.319a12.5 12.5 0 0 0-2.821-20.613L279.9 53.199c-6.212-3.016-13.69-.422-16.703 5.789-3.014 6.211-.422 13.689 5.789 16.703l1.339.65c-22.745 5.664-44.487 15.411-63.722 28.691-22.328 15.415-41.343 35.665-55.499 58.983h-43.89c-8.284 0-15 6.716-15 15-.001 8.284 6.715 15 14.999 15zM75.213 259.015h58.198c8.284 0 15-6.716 15-15s-6.716-15-15-15H75.213c-8.284 0-15 6.716-15 15s6.716 15 15 15zM360.19 430.015H154.213c-8.284 0-15 6.716-15 15s6.716 15 15 15H360.19c8.284 0 15-6.716 15-15s-6.715-15-15-15zM325.897 128.363l-16.88 14.917a42.463 42.463 0 0 1-28.139 10.654h-.006a42.517 42.517 0 0 1-28.53-11.016c-43.864 22.612-73.929 68.375-73.929 121.03 0 75.028 61.04 136.068 136.068 136.068s136.068-61.04 136.068-136.068c-.002-71.184-54.947-129.767-124.652-135.585zm58.961 81.752-30.441 32.481a44.709 44.709 0 0 1 5.058 20.689c0 24.813-20.187 45-45 45s-45-20.187-45-45 20.187-45 45-45c6.42 0 12.524 1.361 18.055 3.794l30.439-32.478c5.665-6.045 15.158-6.353 21.202-.688s6.352 15.158.687 21.202z"
      fill="#000000" data-original="#000000"></path>
    <circle cx="314.475" cy="263.285" r="15" fill="#000000" data-original="#000000"></circle>
  </g>
</svg>