<svg xmlns="http://www.w3.org/2000/svg" version="1.1" xmlnsXlink="http://www.w3.org/1999/xlink"
  xmlnsSvgjs="http://svgjs.com/svgjs" width="512" height="512" x="0" y="0" viewBox="0 0 32 32"
  style="enable-background:new 0 0 512 512" xml:space="preserve" class="">
  <g>
    <path
      d="M24 4H8a1 1 0 0 1 0-2h16a1 1 0 0 1 0 2zm4 3a1 1 0 0 0-1-1H5a1 1 0 0 0 0 2h22a1 1 0 0 0 1-1zM13 22.382 17.764 20 13 17.618zM30 13v14a3 3 0 0 1-3 3H5a3 3 0 0 1-3-3V13a3 3 0 0 1 3-3h22a3 3 0 0 1 3 3zm-9 7a1 1 0 0 0-.553-.895l-8-4A1 1 0 0 0 11 16v8a1 1 0 0 0 1.447.895l8-4A1 1 0 0 0 21 20z"
      data-name="07 playlist" fill="#000000" data-original="#000000" class=""></path>
  </g>
</svg>