<svg xmlns="http://www.w3.org/2000/svg" version="1.1" xmlnsXlink="http://www.w3.org/1999/xlink"
  xmlnsSvgjs="http://svgjs.com/svgjs" width="512" height="512" x="0" y="0" viewBox="0 0 512.001 512"
  style="enable-background:new 0 0 512 512" xml:space="preserve" class="">
  <g>
    <path
      d="M263.398 246.84c61.907-41.293 78.614-124.953 37.32-186.856-41.292-61.906-124.952-78.613-186.855-37.32C51.961 63.957 35.25 147.617 76.543 209.52a134.81 134.81 0 0 0 37.32 37.32C47.191 262.78.121 322.324 0 390.875c0 7.441 6.031 13.473 13.473 13.473h350.316c7.441 0 13.477-6.032 13.477-13.473-.125-68.55-47.196-128.094-113.868-144.035zM80.844 134.875c0-59.531 48.258-107.79 107.789-107.79 59.527 0 107.789 48.259 107.789 107.79 0 59.527-48.258 107.79-107.79 107.79-59.503-.067-107.726-48.286-107.788-107.79zm-53.16 242.523c6.945-61.34 58.796-107.71 120.527-107.789h80.84c61.734.079 113.586 46.45 120.527 107.79zM417.684 161.82h80.843c7.442 0 13.473-6.03 13.473-13.472s-6.031-13.477-13.473-13.477h-80.843c-7.442 0-13.473 6.035-13.473 13.477s6.031 13.472 13.473 13.472zM498.527 188.77h-80.843c-7.442 0-13.473 6.03-13.473 13.472 0 7.442 6.031 13.473 13.473 13.473h80.843c7.442 0 13.473-6.031 13.473-13.473 0-7.441-6.031-13.472-13.473-13.472zM498.527 242.664h-80.843c-7.442 0-13.473 6.031-13.473 13.473 0 7.441 6.031 13.472 13.473 13.472h80.843c7.442 0 13.473-6.03 13.473-13.472 0-7.442-6.031-13.473-13.473-13.473zm0 0"
      fill="#000000" data-original="#000000"></path>
  </g>
</svg>