<svg xmlns="http://www.w3.org/2000/svg" version="1.1" xmlnsXlink="http://www.w3.org/1999/xlink"
  xmlnsSvgjs="http://svgjs.com/svgjs" width="512" height="512" x="0" y="0" viewBox="0 0 512 511"
  style="enable-background:new 0 0 512 512" xml:space="preserve" class="">
  <g>
    <path
      d="M417.684 162.184h80.843c7.442 0 13.473-6.032 13.473-13.473 0-7.441-6.031-13.477-13.473-13.477h-80.843c-7.442 0-13.473 6.036-13.473 13.477 0 7.441 6.031 13.473 13.473 13.473zM498.527 189.133h-80.843c-7.442 0-13.473 6.031-13.473 13.472 0 7.442 6.031 13.473 13.473 13.473h80.843c7.442 0 13.473-6.031 13.473-13.473 0-7.44-6.031-13.472-13.473-13.472zM498.527 243.027h-80.843c-7.442 0-13.473 6.032-13.473 13.473s6.031 13.473 13.473 13.473h80.843c7.442 0 13.473-6.032 13.473-13.473s-6.031-13.473-13.473-13.473zM309.895 121.762c0 66.972-54.293 121.265-121.262 121.265-66.973 0-121.266-54.293-121.266-121.265C67.367 54.793 121.66.5 188.633.5c66.969 0 121.262 54.293 121.262 121.262zM269.473 269.973H99.418C44.512 269.973 0 314.484 0 369.387v21.847c0 7.446 6.031 13.477 13.473 13.477h350.316c7.441 0 13.473-6.031 13.473-13.477v-13.472c0-59.532-48.258-107.79-107.79-107.79zm0 0"
      fill="#000000" data-original="#000000"></path>
  </g>
</svg>