<svg xmlns="http://www.w3.org/2000/svg" version="1.1" xmlnsXlink="http://www.w3.org/1999/xlink"
  xmlnsSvgjs="http://svgjs.com/svgjs" width="512" height="512" x="0" y="0" viewBox="0 0 512 512"
  style="enable-background:new 0 0 512 512" xml:space="preserve" class="">
  <g>
    <path
      d="m509.991 248.501-30.277-52.448V135.5a15 15 0 0 0-7.501-12.991l-52.446-30.276-30.275-52.446a15.002 15.002 0 0 0-12.991-7.5h-60.554L263.499 2.009a15.003 15.003 0 0 0-14.999 0l-52.447 30.277H135.5a15 15 0 0 0-12.991 7.501L92.234 92.233l-52.447 30.276a14.998 14.998 0 0 0-7.501 12.991v60.553L2.009 248.501a14.999 14.999 0 0 0 0 14.998l30.276 52.448V376.5a15 15 0 0 0 7.501 12.991l52.447 30.276 30.276 52.446a14.998 14.998 0 0 0 12.991 7.501h60.554l52.447 30.277a14.995 14.995 0 0 0 14.999 0l52.447-30.277H376.5a15 15 0 0 0 12.991-7.5l30.275-52.446 52.446-30.276a14.998 14.998 0 0 0 7.501-12.991v-60.553L509.99 263.5a14.998 14.998 0 0 0 .001-14.999zM182.633 304.2a15 15 0 0 1-27.481 8.32l-36.786-55.179V304.2c0 8.284-6.716 15-15 15s-15-6.716-15-15v-96.4a15 15 0 0 1 27.481-8.32l36.786 55.179V207.8c0-8.284 6.716-15 15-15s15 6.716 15 15zm65.334-63.2c8.284 0 15 6.716 15 15s-6.716 15-15 15h-17.133v18.2h33.2c8.284 0 15 6.716 15 15s-6.716 15-15 15h-48.2c-8.284 0-15-6.716-15-15v-96.4c0-8.284 6.716-15 15-15h48.2c8.284 0 15 6.716 15 15s-6.716 15-15 15h-33.2V241zm183.252-29.562-24.1 96.4a15.002 15.002 0 0 1-14.557 11.363 14.998 14.998 0 0 1-14.226-10.257l-17.903-53.71-17.903 53.71c-2.109 6.327-8.143 10.485-14.806 10.246a15.002 15.002 0 0 1-13.977-11.352l-24.1-96.4c-2.009-8.037 2.877-16.181 10.914-18.189 8.039-2.013 16.181 2.876 18.19 10.914l11.606 46.427 15.844-47.532a15 15 0 0 1 28.46 0l15.844 47.532 11.606-46.427c2.01-8.037 10.154-12.925 18.19-10.914 8.04 2.008 12.927 10.151 10.918 18.189z"
      fill="#000000" data-original="#000000" class=""></path>
  </g>
</svg>