<svg xmlns="http://www.w3.org/2000/svg" version="1.1" xmlnsXlink="http://www.w3.org/1999/xlink"
  xmlnsSvgjs="http://svgjs.com/svgjs" width="512" height="512" x="0" y="0" viewBox="0 0 512 512"
  style="enable-background:new 0 0 512 512" xml:space="preserve" class="">
  <g>
    <path
      d="M464.98 62.694H47.02C21.093 62.694 0 83.787 0 109.714v292.571c0 25.927 21.093 47.02 47.02 47.02h417.96c25.927 0 47.02-21.093 47.02-47.02V109.714c0-25.927-21.093-47.02-47.02-47.02zm15.673 339.592c0 8.642-7.031 15.673-15.673 15.673H47.02c-8.642 0-15.674-7.031-15.674-15.673V109.714c0-8.642 7.031-15.673 15.674-15.673h417.96c8.642 0 15.673 7.031 15.673 15.673v292.572z"
      fill="#000000" data-original="#000000" class=""></path>
    <path
      d="M412.735 344.611H162.563v-1.84c0-8.656-7.018-15.673-15.674-15.673-8.656 0-15.673 7.018-15.673 15.673v1.84H99.265c-8.656 0-15.673 7.018-15.673 15.673 0 8.656 7.018 15.674 15.673 15.674h31.951v1.84c0 8.656 7.018 15.673 15.673 15.673 8.656 0 15.674-7.018 15.674-15.673v-1.84h250.172c8.656 0 15.673-7.018 15.673-15.674 0-8.656-7.017-15.673-15.673-15.673zM320.935 196.996l-105.24-60.76c-10.442-6.029-23.51 1.535-23.51 13.573V271.33c0 12.043 13.078 19.597 23.51 13.573l105.24-60.761c10.442-6.028 10.426-21.128 0-27.146zm-97.403 47.186v-67.227l58.22 33.613-58.22 33.614z"
      fill="#000000" data-original="#000000" class=""></path>
  </g>
</svg>