<svg xmlns="http://www.w3.org/2000/svg" version="1.1" xmlnsXlink="http://www.w3.org/1999/xlink"
  xmlnsSvgjs="http://svgjs.com/svgjs" width="512" height="512" x="0" y="0" viewBox="0 0 32 32"
  style="enable-background:new 0 0 512 512" xml:space="preserve" class="">
  <g>
    <path
      d="M3 8.93a1 1 0 0 0-1 1v11.14a1 1 0 0 0 2 0V9.93a1 1 0 0 0-1-1zM14.3 8.94a1 1 0 0 0-1.11.67l-2.76 8.3-2.77-8.3a1 1 0 0 0-1.11-.67 1 1 0 0 0-.84 1v11.13a1 1 0 0 0 2 0v-5l1.77 5.3a1 1 0 0 0 1.9 0l1.76-5.3v5a1 1 0 0 0 2 0V9.93a1 1 0 0 0-.84-.99zM19.71 8.93h-1.85a1 1 0 0 0-1 1V18a1 1 0 0 0 2 0v-7.07h.75c.35.33 1 1.94 1 4.57s-.61 4.24-1 4.57h-1.75a1 1 0 0 0 0 2h1.85c2 0 2.86-3.3 2.86-6.57s-.88-6.57-2.86-6.57zM27.76 12.64h-1.47V9.93a1 1 0 0 0-2 0v11.14a1 1 0 0 0 1 1h2.47c1.65 0 2.24-2.54 2.24-4.71s-.59-4.72-2.24-4.72zm-.24 7.43h-1.23v-5.43h1.23a6.22 6.22 0 0 1 .48 2.72 6.16 6.16 0 0 1-.48 2.71z"
      fill="#000000" data-original="#000000" class=""></path>
  </g>
</svg>