<svg xmlns="http://www.w3.org/2000/svg" version="1.1" xmlnsXlink="http://www.w3.org/1999/xlink"
  xmlnsSvgjs="http://svgjs.com/svgjs" width="512" height="512" x="0" y="0" viewBox="0 0 24 24"
  style="enable-background:new 0 0 512 512" xml:space="preserve" class="">
  <g>
    <path
      d="m.856 20.081-.127-.001a.751.751 0 0 1 .041-1.499c.042 0 4.207.091 8.768-1.612 6.033-2.252 9.888-6.424 11.456-12.399a.751.751 0 0 1 1.451.381C18.575 19.699 2.459 20.081.856 20.081z"
      fill="#000000" data-original="#000000"></path>
    <path
      d="M23.25 8.098a.76.76 0 0 1-.194-.025l-4.098-1.098a.75.75 0 0 1-.18-1.374l2.598-1.5a.75.75 0 0 1 1.024.274l1.5 2.598a.751.751 0 0 1-.65 1.125zM21.75 24a1 1 0 0 1-1-1V11a1 1 0 0 1 2 0v12a1 1 0 0 1-1 1zM15.75 24a1 1 0 0 1-1-1v-5a1 1 0 0 1 2 0v5a1 1 0 0 1-1 1zM9.75 24a1 1 0 0 1-1-1v-2a1 1 0 0 1 2 0v2a1 1 0 0 1-1 1zM3.75 24a1 1 0 0 1-1-1v-.5a1 1 0 0 1 2 0v.5a1 1 0 0 1-1 1zM14.854.147A.518.518 0 0 0 14.491 0c-2.827.053-6.125 1.703-8.219 4.1-2.266.081-4.156.764-5.335 1.943a.5.5 0 0 0 .237.84l2.129.51-.013.014a.5.5 0 0 0 .018.688l3.597 3.597a.495.495 0 0 0 .354.146c.12 0 .239-.042.334-.128l.014-.013.51 2.129a.5.5 0 0 0 .841.238c1.18-1.18 1.862-3.07 1.943-5.336 2.4-2.101 4.047-5.395 4.1-8.219a.506.506 0 0 0-.147-.362z"
      fill="#000000" data-original="#000000"></path>
    <path
      d="M1.716 10.347c-.671.671-1.53 3.458-1.695 4.01a.502.502 0 0 0 .623.622c.552-.165 3.338-1.023 4.01-1.695a2.08 2.08 0 0 0 0-2.938 2.08 2.08 0 0 0-2.938.001z"
      fill="#000000" data-original="#000000"></path>
  </g>
</svg>