<svg xmlns="http://www.w3.org/2000/svg" version="1.1" xmlnsXlink="http://www.w3.org/1999/xlink"
  xmlnsSvgjs="http://svgjs.com/svgjs" width="512" height="512" x="0" y="0" viewBox="0 0 24 24"
  style="enable-background:new 0 0 512 512" xml:space="preserve" class="">
  <g>
    <path
      d="M.619 20.001.486 20A.501.501 0 0 1 0 19.486c.008-.276.23-.474.514-.486.166-.002 17.149.3 21.001-14.625a.5.5 0 1 1 .968.25C18.617 19.608 2.267 20.001.619 20.001z"
      fill="#000000" data-original="#000000" class=""></path>
    <path
      d="M23.5 7.598a.5.5 0 0 1-.434-.25l-1.25-2.165-2.165 1.25a.501.501 0 0 1-.5-.866l2.598-1.5a.499.499 0 0 1 .683.183l1.5 2.598a.5.5 0 0 1-.432.75zM21.5 24a.5.5 0 0 1-.5-.5v-13a.5.5 0 0 1 1 0v13a.5.5 0 0 1-.5.5zM15.5 24a.5.5 0 0 1-.5-.5v-6a.5.5 0 0 1 1 0v6a.5.5 0 0 1-.5.5zM9.5 24a.5.5 0 0 1-.5-.5v-3a.5.5 0 0 1 1 0v3a.5.5 0 0 1-.5.5zM3.5 24a.5.5 0 0 1-.5-.5V22a.5.5 0 0 1 1 0v1.5a.5.5 0 0 1-.5.5zM7.258 11.838a.502.502 0 0 1-.354-.146L3.308 8.095a.5.5 0 0 1-.018-.688l2.946-3.271C8.329 1.719 11.649.053 14.491 0c.118-.016.267.051.363.146A.505.505 0 0 1 15 .509c-.053 2.842-1.719 6.162-4.144 8.261l-3.264 2.94a.493.493 0 0 1-.334.128zM4.351 7.724l2.926 2.926 2.918-2.629c2.076-1.797 3.542-4.542 3.774-6.99-2.448.232-5.192 1.698-6.983 3.767z"
      fill="#000000" data-original="#000000" class=""></path>
    <path
      d="M8.604 14.21a.503.503 0 0 1-.487-.384l-.707-2.95a.5.5 0 0 1 .973-.233l.469 1.959c.869-1.359 1.042-3.098 1.06-4.115a.51.51 0 0 1 .509-.491.5.5 0 0 1 .491.508c-.042 2.366-.736 4.34-1.955 5.559a.5.5 0 0 1-.353.147zM4.241 7.603a.468.468 0 0 1-.117-.014l-2.95-.707a.498.498 0 0 1-.238-.839c1.219-1.219 3.193-1.913 5.56-1.955.277-.025.504.215.508.491s-.214.504-.491.509c-1.018.018-2.756.191-4.115 1.06l1.959.469a.5.5 0 0 1-.116.986zM.5 15a.5.5 0 0 1-.479-.643c.165-.552 1.023-3.338 1.695-4.01a2.079 2.079 0 0 1 2.938 0c.81.81.81 2.128 0 2.938-.671.672-3.458 1.529-4.01 1.694A.512.512 0 0 1 .5 15zm2.685-4.261c-.276 0-.552.105-.762.315-.284.284-.772 1.536-1.154 2.677 1.141-.382 2.394-.87 2.677-1.153a1.078 1.078 0 0 0-.761-1.839z"
      fill="#000000" data-original="#000000" class=""></path>
  </g>
</svg>